<svg width="28" height="18" viewBox="2.5 0.4 30.2 19.6" fill="none" xmlns="http://www.w3.org/2000/svg" xmlns:xlink="http://www.w3.org/1999/xlink">
<path d="M32.5985 2.86318V17.6432C32.5985 18.7478 31.703 19.6432 30.5985 19.6432H4.61237C3.5078 19.6432 2.61237 18.7478 2.61237 17.6432V2.84518C2.61237 1.42218 3.88011 0.388184 5.44378 0.388184H29.7659C31.3296 0.388184 32.5973 1.41318 32.5973 2.84518C32.5985 2.85118 32.5985 2.85718 32.5985 2.86318Z" fill="#D3D1C8"/>
<path d="M3.86133 13.7571V4.54312V3.60712C3.86133 3.52512 3.86133 3.44412 3.86133 3.36212C3.86133 3.29312 3.86248 3.22512 3.86478 3.15612C3.86939 3.00612 3.87975 2.85612 3.90969 2.70812C3.94078 2.55812 3.99144 2.41812 4.07204 2.28212C4.15034 2.14812 4.25282 2.02512 4.37603 1.91912C4.49923 1.81312 4.64086 1.72412 4.79515 1.65612C4.95175 1.58712 5.11296 1.54312 5.28682 1.51612C5.45724 1.48912 5.63111 1.48112 5.80383 1.47712C5.88328 1.47512 5.96157 1.47412 6.04102 1.47412C6.13544 1.47412 6.22871 1.47412 6.32313 1.47412H7.40204H28.8098H27.8092H28.8881C28.9825 1.47412 29.0758 1.47412 29.1702 1.47412C29.2497 1.47412 29.328 1.47512 29.4074 1.47712C29.5801 1.48112 29.754 1.49012 29.9244 1.51612C30.0971 1.54312 30.2583 1.58712 30.4161 1.65612C30.5704 1.72412 30.712 1.81312 30.8341 1.92012C30.9561 2.02612 31.0598 2.14912 31.1381 2.28312C31.2187 2.41912 31.2693 2.55912 31.3004 2.70912C31.3315 2.85712 31.3407 3.00812 31.3453 3.15712C31.3476 3.22612 31.3488 3.29412 31.3488 3.36312C31.3488 3.44512 31.3488 3.52612 31.3488 3.60812V4.54412V13.7581H3.86133V13.7571Z" fill="#319DCC"/>
<g opacity="0.2">
<path d="M3.86127 15.9251V6.71111V5.77511C3.86127 5.69311 3.86127 5.61211 3.86127 5.53011C3.86127 5.46111 3.86242 5.39311 3.86472 5.32411C3.86933 5.17411 3.87969 5.02411 3.90963 4.87611C3.94072 4.72611 3.99138 4.58611 4.07198 4.45011C4.15028 4.31611 4.25276 4.19311 4.37597 4.08711C4.49802 3.98111 4.63965 3.89211 4.79394 3.82311C4.95054 3.75411 5.11174 3.71011 5.28561 3.68311C5.45603 3.65611 5.6299 3.64811 5.80261 3.64411C5.88206 3.64211 5.96036 3.64111 6.03981 3.64111C6.13423 3.64111 6.2275 3.64111 6.32192 3.64111H7.40083H28.8086H27.808H28.8869C28.9813 3.64111 29.0746 3.64111 29.169 3.64111C29.2485 3.64111 29.3268 3.64211 29.4062 3.64411C29.5789 3.64811 29.7528 3.65711 29.9232 3.68311C30.0959 3.71011 30.2571 3.75411 30.4149 3.82311C30.5692 3.89111 30.7108 3.98011 30.8329 4.08711C30.9549 4.19311 31.0585 4.31611 31.1368 4.45011C31.2174 4.58611 31.2681 4.72611 31.2992 4.87611C31.3303 5.02411 31.3395 5.17511 31.3441 5.32411C31.3464 5.39311 31.3476 5.46111 31.3476 5.53011C31.3476 5.61211 31.3476 5.69311 31.3476 5.77511V6.71111V15.9251H3.86127Z" fill="white"/>
</g>
<path d="M3.86133 15.9251V6.71111V5.77511C3.86133 5.69311 3.86133 5.61211 3.86133 5.53011C3.86133 5.46111 3.86248 5.39311 3.86478 5.32411C3.86939 5.17411 3.87975 5.02411 3.90969 4.87611C3.94078 4.72611 3.99144 4.58611 4.07204 4.45011C4.15034 4.31611 4.25282 4.19311 4.37603 4.08711C4.49808 3.98111 4.63971 3.89211 4.794 3.82311C4.9506 3.75411 5.1118 3.71011 5.28567 3.68311C5.45609 3.65611 5.62996 3.64811 5.80267 3.64411C5.88212 3.64211 5.96042 3.64111 6.03987 3.64111C6.13429 3.64111 6.22756 3.64111 6.32198 3.64111H7.40089H28.8087H27.8081H28.887C28.9814 3.64111 29.0746 3.64111 29.1691 3.64111C29.2485 3.64111 29.3268 3.64211 29.4063 3.64411C29.579 3.64811 29.7529 3.65711 29.9233 3.68311C30.096 3.71011 30.2572 3.75411 30.4149 3.82311C30.5692 3.89111 30.7109 3.98011 30.8329 4.08711C30.955 4.19311 31.0586 4.31611 31.1369 4.45011C31.2175 4.58611 31.2682 4.72611 31.2993 4.87611C31.3303 5.02411 31.3396 5.17511 31.3442 5.32411C31.3465 5.39311 31.3476 5.46111 31.3476 5.53011C31.3476 5.61211 31.3476 5.69311 31.3476 5.77511V6.71111V15.9251H3.86133Z" fill="#FDB921"/>
<path d="M3.86176 18.0931V8.87908V7.94308C3.86176 7.86108 3.86176 7.78008 3.86176 7.69808C3.86176 7.62908 3.86291 7.56108 3.86521 7.49208C3.86982 7.34208 3.88018 7.19208 3.91012 7.04408C3.94121 6.89408 3.99187 6.75408 4.07247 6.61808C4.15077 6.48408 4.25325 6.36108 4.37645 6.25508C4.49851 6.14908 4.64014 6.06008 4.79443 5.99108C4.95103 5.92208 5.11223 5.87808 5.2861 5.85108C5.45651 5.82408 5.63038 5.81608 5.8031 5.81208C5.88255 5.81008 5.96085 5.80908 6.0403 5.80908C6.13472 5.80908 6.22799 5.80908 6.32241 5.80908H7.40132H28.8091H27.8085H28.8874C28.9818 5.80908 29.0751 5.80908 29.1695 5.80908C29.2489 5.80908 29.3272 5.81008 29.4067 5.81208C29.5794 5.81608 29.7533 5.82508 29.9237 5.85108C30.0964 5.87808 30.2576 5.92208 30.4154 5.99108C30.5697 6.05908 30.7113 6.14808 30.8333 6.25508C30.9554 6.36108 31.059 6.48408 31.1373 6.61808C31.2179 6.75408 31.2686 6.89408 31.2997 7.04408C31.3308 7.19208 31.34 7.34308 31.3446 7.49208C31.3469 7.56108 31.348 7.62908 31.348 7.69808C31.348 7.78008 31.348 7.86108 31.348 7.94308V8.87908V18.0931H3.86176Z" fill="white"/>
<path d="M3.86133 18.0931V8.87908V7.94308C3.86133 7.86108 3.86133 7.78008 3.86133 7.69808C3.86133 7.62908 3.86248 7.56108 3.86478 7.49208C3.86939 7.34208 3.87975 7.19208 3.90969 7.04408C3.94078 6.89408 3.99144 6.75408 4.07204 6.61808C4.15034 6.48408 4.25282 6.36108 4.37603 6.25508C4.49808 6.14908 4.63971 6.06008 4.794 5.99108C4.9506 5.92208 5.1118 5.87808 5.28567 5.85108C5.45609 5.82408 5.62996 5.81608 5.80267 5.81208C5.88212 5.81008 5.96042 5.80908 6.03987 5.80908C6.13429 5.80908 6.22756 5.80908 6.32198 5.80908H7.40089H28.8087H27.8081H28.887C28.9814 5.80908 29.0746 5.80908 29.1691 5.80908C29.2485 5.80908 29.3268 5.81008 29.4063 5.81208C29.579 5.81608 29.7529 5.82508 29.9233 5.85108C30.096 5.87808 30.2572 5.92208 30.4149 5.99108C30.5692 6.05908 30.7109 6.14808 30.8329 6.25508C30.955 6.36108 31.0586 6.48408 31.1369 6.61808C31.2175 6.75408 31.2682 6.89408 31.2993 7.04408C31.3303 7.19208 31.3396 7.34308 31.3442 7.49208C31.3465 7.56108 31.3476 7.62908 31.3476 7.69808C31.3476 7.78008 31.3476 7.86108 31.3476 7.94308V8.87908V18.0931H3.86133Z" fill="#71BF49"/>
<g opacity="0.2">
<path d="M3.86176 18.0935V11.0475V10.1115C3.86176 10.0295 3.86176 9.94854 3.86176 9.86654C3.86176 9.79754 3.86291 9.72954 3.86521 9.66054C3.86982 9.51054 3.88018 9.36054 3.91012 9.21254C3.94121 9.06254 3.99187 8.92254 4.07247 8.78654C4.15077 8.65254 4.25325 8.52954 4.37645 8.42354C4.49851 8.31754 4.64014 8.22854 4.79443 8.15954C4.95103 8.09054 5.11223 8.04654 5.2861 8.01954C5.45651 7.99254 5.63038 7.98454 5.8031 7.98054C5.88255 7.97854 5.96085 7.97754 6.0403 7.97754C6.13472 7.97754 6.22799 7.97754 6.32241 7.97754H7.40132H28.8091H27.8085H28.8874C28.9818 7.97754 29.0751 7.97754 29.1695 7.97754C29.2489 7.97754 29.3272 7.97854 29.4067 7.98054C29.5794 7.98454 29.7533 7.99354 29.9237 8.01954C30.0964 8.04654 30.2576 8.09054 30.4154 8.15954C30.5697 8.22754 30.7113 8.31654 30.8333 8.42354C30.9554 8.52954 31.059 8.65254 31.1373 8.78654C31.2179 8.92254 31.2686 9.06254 31.2997 9.21254C31.3308 9.36054 31.34 9.51154 31.3446 9.66054C31.3469 9.72954 31.348 9.79754 31.348 9.86654C31.348 9.94854 31.348 10.0295 31.348 10.1115V11.0475V18.0935H3.86176Z" fill="white"/>
</g>
<path d="M3.86133 18.0931V11.0471V10.1111C3.86133 10.0291 3.86133 9.94805 3.86133 9.86605C3.86133 9.79705 3.86248 9.72905 3.86478 9.66005C3.86939 9.51005 3.87975 9.36005 3.90969 9.21205C3.94078 9.06205 3.99144 8.92205 4.07204 8.78605C4.15034 8.65205 4.25282 8.52905 4.37603 8.42305C4.49808 8.31705 4.63971 8.22805 4.794 8.15905C4.9506 8.09005 5.1118 8.04605 5.28567 8.01905C5.45609 7.99205 5.62996 7.98405 5.80267 7.98005C5.88212 7.97805 5.96042 7.97705 6.03987 7.97705C6.13429 7.97705 6.22756 7.97705 6.32198 7.97705H7.40089H28.8087H27.8081H28.887C28.9814 7.97705 29.0746 7.97705 29.1691 7.97705C29.2485 7.97705 29.3268 7.97805 29.4063 7.98005C29.579 7.98405 29.7529 7.99305 29.9233 8.01905C30.096 8.04605 30.2572 8.09005 30.4149 8.15905C30.5692 8.22705 30.7109 8.31605 30.8329 8.42305C30.955 8.52905 31.0586 8.65205 31.1369 8.78605C31.2175 8.92205 31.2682 9.06205 31.2993 9.21205C31.3303 9.36005 31.3396 9.51105 31.3442 9.66005C31.3465 9.72905 31.3476 9.79705 31.3476 9.86605C31.3476 9.94805 31.3476 10.0291 31.3476 10.1111V11.0471V18.0931H3.86133Z" fill="#F37163"/>
<path d="M32.5977 17.8991C32.5984 19.0034 31.7033 19.8991 30.5989 19.8991H4.61279C3.50822 19.8991 2.61279 19.0036 2.61279 17.8991V12.1431H9.89457C10.073 12.1431 10.2527 12.1431 10.4311 12.1441C10.582 12.1451 10.7328 12.1461 10.8825 12.1501C11.2107 12.1581 11.5411 12.1741 11.8659 12.2251C12.1952 12.2761 12.5015 12.3601 12.8008 12.4921C12.7375 12.4641 13.6241 12.7801 14.4025 13.8311C14.9644 14.5891 16.056 15.3931 17.584 15.3931C19.1119 15.3931 20.2047 14.5891 20.7654 13.8311C21.5046 12.8331 22.3268 12.5091 22.3659 12.4921C22.6653 12.3601 22.9716 12.2761 23.3009 12.2251C23.6256 12.1741 23.9561 12.1581 24.2843 12.1501C24.4351 12.1461 24.5859 12.1451 24.7356 12.1441C24.9141 12.1431 25.0937 12.1431 25.2722 12.1431H32.5977V17.8991Z" fill="white"/>
<path d="M32.5977 17.8983C32.5981 19.0032 31.7026 19.8991 30.5977 19.8991H4.61237C3.5078 19.8991 2.61237 19.0036 2.61237 17.8991V10.1431H9.89414C10.0726 10.1431 10.2522 10.1431 10.4307 10.1441C10.5816 10.1451 10.7324 10.1461 10.8821 10.1501C11.2103 10.1581 11.5407 10.1741 11.8654 10.2251C12.1947 10.2761 12.501 10.3601 12.8004 10.4921C12.7371 10.4641 13.6237 10.7801 14.4021 11.8311C14.964 12.5891 16.0556 13.3931 17.5835 13.3931C19.1115 13.3931 20.2042 12.5891 20.765 11.8311C21.5042 10.8331 22.3264 10.5091 22.3655 10.4921C22.6649 10.3601 22.9712 10.2761 23.3005 10.2251C23.6252 10.1741 23.9557 10.1581 24.2838 10.1501C24.4347 10.1461 24.5855 10.1451 24.7352 10.1441C24.9137 10.1431 25.0933 10.1431 25.2718 10.1431H32.5973V16.8991L32.5977 17.8983Z" fill="#D3D1C8"/>
<defs>
</defs>
</svg>
