<svg width="20.5" height="18" viewBox="0 0 20.5 18" fill="none" xmlns="http://www.w3.org/2000/svg">
<path d="M2.72314 15.6602H11.3643C11.1235 15.2451 10.9409 14.7969 10.8247 14.3237H2.59863C1.85986 14.3237 1.45312 13.9336 1.45312 13.1616L1.45312 5.33398C1.45312 4.57031 1.85986 4.17188 2.59863 4.17188L14.1699 4.17188C14.9087 4.17188 15.3237 4.57031 15.3237 5.33398V7.69141C15.5645 7.6665 15.7803 7.6499 16.0044 7.6499C16.2202 7.6499 16.4443 7.6665 16.6602 7.69141V2.95166C16.6602 1.2417 15.7969 0.378418 14.062 0.378418L2.72314 0.378418C0.988281 0.378418 0.116699 1.2334 0.116699 2.95166L0.116699 13.0869C0.116699 14.8052 0.988281 15.6602 2.72314 15.6602ZM6.76562 7.15186H7.25537C7.5459 7.15186 7.64551 7.06885 7.64551 6.77832V6.28857C7.64551 5.99805 7.5459 5.90674 7.25537 5.90674H6.76562C6.4751 5.90674 6.37549 5.99805 6.37549 6.28857V6.77832C6.37549 7.06885 6.4751 7.15186 6.76562 7.15186ZM9.52979 7.15186H10.0112C10.3018 7.15186 10.4014 7.06885 10.4014 6.77832V6.28857C10.4014 5.99805 10.3018 5.90674 10.0112 5.90674H9.52979C9.23096 5.90674 9.13965 5.99805 9.13965 6.28857V6.77832C9.13965 7.06885 9.23096 7.15186 9.52979 7.15186ZM12.2856 7.15186H12.7754C13.0659 7.15186 13.1572 7.06885 13.1572 6.77832V6.28857C13.1572 5.99805 13.0659 5.90674 12.7754 5.90674H12.2856C11.9951 5.90674 11.8955 5.99805 11.8955 6.28857V6.77832C11.8955 7.06885 11.9951 7.15186 12.2856 7.15186ZM4.00977 9.86621H4.49951C4.79004 9.86621 4.88135 9.7832 4.88135 9.49268V9.00293C4.88135 8.7124 4.79004 8.62939 4.49951 8.62939H4.00977C3.71924 8.62939 3.61963 8.7124 3.61963 9.00293V9.49268C3.61963 9.7832 3.71924 9.86621 4.00977 9.86621ZM6.76562 9.86621H7.25537C7.5459 9.86621 7.64551 9.7832 7.64551 9.49268V9.00293C7.64551 8.7124 7.5459 8.62939 7.25537 8.62939H6.76562C6.4751 8.62939 6.37549 8.7124 6.37549 9.00293V9.49268C6.37549 9.7832 6.4751 9.86621 6.76562 9.86621ZM9.52979 9.86621H10.0112C10.3018 9.86621 10.4014 9.7832 10.4014 9.49268V9.00293C10.4014 8.7124 10.3018 8.62939 10.0112 8.62939H9.52979C9.23096 8.62939 9.13965 8.7124 9.13965 9.00293V9.49268C9.13965 9.7832 9.23096 9.86621 9.52979 9.86621ZM16.0044 17.2207C18.2871 17.2207 20.2212 15.3115 20.2212 13.0039C20.2212 10.688 18.312 8.78711 16.0044 8.78711C13.6885 8.78711 11.7876 10.6963 11.7876 13.0039C11.7876 15.3281 13.6885 17.2207 16.0044 17.2207ZM16.0044 15.6436C15.6973 15.6436 15.498 15.4443 15.498 15.1372V13.5103L13.8711 13.5103C13.5723 13.5103 13.3647 13.311 13.3647 13.0039C13.3647 12.6968 13.5723 12.4976 13.8711 12.4976H15.498V10.8706C15.498 10.5718 15.6973 10.3643 16.0044 10.3643C16.3115 10.3643 16.5107 10.5718 16.5107 10.8706V12.4976H18.1294C18.4365 12.4976 18.644 12.6968 18.644 13.0039C18.644 13.311 18.4365 13.5103 18.1294 13.5103H16.5107V15.1372C16.5107 15.4443 16.3115 15.6436 16.0044 15.6436ZM4.00977 12.5889H4.49951C4.79004 12.5889 4.88135 12.4976 4.88135 12.207V11.7173C4.88135 11.4268 4.79004 11.3438 4.49951 11.3438H4.00977C3.71924 11.3438 3.61963 11.4268 3.61963 11.7173V12.207C3.61963 12.4976 3.71924 12.5889 4.00977 12.5889ZM6.76562 12.5889H7.25537C7.5459 12.5889 7.64551 12.4976 7.64551 12.207V11.7173C7.64551 11.4268 7.5459 11.3438 7.25537 11.3438H6.76562C6.4751 11.3438 6.37549 11.4268 6.37549 11.7173V12.207C6.37549 12.4976 6.4751 12.5889 6.76562 12.5889ZM9.52979 12.5889H10.0112C10.3018 12.5889 10.4014 12.4976 10.4014 12.207V11.7173C10.4014 11.4268 10.3018 11.3438 10.0112 11.3438H9.52979C9.23096 11.3438 9.13965 11.4268 9.13965 11.7173V12.207C9.13965Z" fill="#007AFF"/>
</svg>
