<svg width="34" height="34" viewBox="0.5 0 34.5 34" fill="none" xmlns="http://www.w3.org/2000/svg">
<path d="M9.22266 18.8066H17.8887C18.2207 18.8066 18.4974 18.696 18.7188 18.4746C18.9401 18.2533 19.0508 17.9766 19.0508 17.6445V6.45508C19.0508 6.13411 18.9401 5.86296 18.7188 5.6416C18.4974 5.42025 18.2207 5.30957 17.8887 5.30957C17.5677 5.30957 17.2965 5.42025 17.0752 5.6416C16.8538 5.86296 16.7432 6.13411 16.7432 6.45508V16.499H9.22266C8.89062 16.499 8.61393 16.6097 8.39258 16.8311C8.17122 17.0524 8.06055 17.3236 8.06055 17.6445C8.06055 17.9766 8.17122 18.2533 8.39258 18.4746C8.61393 18.696 8.89062 18.8066 9.22266 18.8066ZM17.9053 33.9473C15.57 33.9473 13.3786 33.5046 11.3311 32.6191C9.28353 31.7448 7.48503 30.5329 5.93555 28.9834C4.38607 27.4229 3.16862 25.6243 2.2832 23.5879C1.40885 21.5404 0.97168 19.349 0.97168 17.0137C0.97168 14.6784 1.40885 12.487 2.2832 10.4395C3.16862 8.39193 4.38607 6.59342 5.93555 5.04395C7.48503 3.49447 9.28353 2.28255 11.3311 1.4082C13.3786 0.522786 15.57 0.0800781 17.9053 0.0800781C20.2406 0.0800781 22.432 0.522786 24.4795 1.4082C26.527 2.28255 28.3255 3.49447 29.875 5.04395C31.4245 6.59342 32.6364 8.39193 33.5107 10.4395C34.3962 12.487 34.8389 14.6784 34.8389 17.0137C34.8389 19.349 34.3962 21.5404 33.5107 23.5879C32.6364 25.6243 31.4245 27.4229 29.875 28.9834C28.3255 30.5329 26.527 31.7448 24.4795 32.6191C22.432 33.5046 20.2406 33.9473 17.9053 33.9473Z" fill="black"/>
</svg>
