<svg width="35" height="18" viewBox="0 0 35 18" fill="none" xmlns="http://www.w3.org/2000/svg">
<path d="M0.328613 7.63818C0.328613 11.2544 2.95654 13.7812 6.89844 13.7812H7.01074C8.68408 16.0723 12.5698 17.4873 17.5 17.4873C22.4189 17.4873 26.3047 16.0723 27.978 13.7812H28.1016C32.0322 13.7812 34.6602 11.2544 34.6602 7.63818C34.6602 5.25732 33.3237 3.81982 30.9878 3.81982H28.5171C27.3604 1.50635 23.5532 0.259766 17.5 0.259766C11.4355 0.259766 7.62842 1.50635 6.47168 3.81982H4.00098C1.67627 3.81982 0.328613 5.25732 0.328613 7.63818ZM17.5 15.6792C11.9409 15.6792 7.90918 13.7139 7.90918 11.0859V5.4707C7.90918 3.28076 11.312 2.06787 17.5 2.06787C23.6768 2.06787 27.0908 3.28076 27.0908 5.4707V11.0859C27.0908 13.7139 23.0479 15.6792 17.5 15.6792ZM11.604 6.52637C11.604 7.02051 12.0083 7.43604 12.5024 7.43604H22.5088C23.0029 7.43604 23.4072 7.02051 23.4072 6.52637C23.4072 6.04346 23.0029 5.62793 22.5088 5.62793H12.5024C12.0083 5.62793 11.604 6.04346 11.604 6.52637ZM28.8989 11.0859V5.62793H30.9878C32.1895 5.62793 32.8521 6.3916 32.8521 7.63818C32.8521 9.98535 31.2461 11.7261 28.8091 11.9507C28.8652 11.6699 28.8989 11.3779 28.8989 11.0859ZM2.13672 7.63818C2.13672 6.3916 2.79932 5.62793 4.00098 5.62793H6.08984V11.0859C6.08984 11.3779 6.12354 11.6699 6.17969 11.9507C3.74268 11.7261 2.13672 9.98535 2.13672 7.63818ZM11.604 10.7266C11.604 11.2207 12.0083 11.625 12.5024 11.625H22.5088C23.0029 11.625 23.4072 11.2207 23.4072 10.7266C23.4072 10.2324 23.0029 9.81689 22.5088 9.81689H12.5024C12.0083 9.81689 11.604 10.2324 11.604 10.7266Z" fill="black"/>
</svg>
