<svg width="20" height="20" viewBox="0 0 16.8 16.8" fill="none" xmlns="http://www.w3.org/2000/svg">
<path d="M12.8078 11.0781C8.58125 11.0781 5.87812 8.42969 5.87812 4.19531C5.87812 3.32031 6.08906 2.07031 6.37031 1.42188C6.44062 1.24219 6.45625 1.13281 6.45625 1.05469C6.45625 0.84375 6.3 0.609375 5.99531 0.609375C5.90937 0.609375 5.72187 0.632812 5.55 0.695312C2.65937 1.85156 0.721874 4.96094 0.721874 8.23438C0.721874 12.8281 4.22187 16.1094 8.8 16.1094C12.1672 16.1094 15.0812 14.0703 16.05 11.5234C16.1203 11.3438 16.1359 11.1562 16.1359 11.0859C16.1359 10.7969 15.8937 10.6016 15.675 10.6016C15.5734Z" fill="black"/>
</svg>
