<svg width="35" height="34" viewBox="0 0 35 34" fill="none" xmlns="http://www.w3.org/2000/svg">
<path d="M17.9053 33.9473C15.57 33.9473 13.3786 33.5046 11.3311 32.6191C9.28353 31.7448 7.48503 30.5329 5.93555 28.9834C4.38607 27.4339 3.16862 25.6354 2.2832 23.5879C1.40885 21.5404 0.97168 19.349 0.97168 17.0137C0.97168 14.6784 1.40885 12.487 2.2832 10.4395C3.16862 8.39193 4.38607 6.59342 5.93555 5.04395C7.48503 3.4834 9.28353 2.26595 11.3311 1.3916C13.3786 0.517253 15.57 0.0800781 17.9053 0.0800781C20.2406 0.0800781 22.432 0.517253 24.4795 1.3916C26.527 2.26595 28.3255 3.4834 29.875 5.04395C31.4245 6.59342 32.6364 8.39193 33.5107 10.4395C34.3962 12.487 34.8389 14.6784 34.8389 17.0137C34.8389 19.349 34.3962 21.5404 33.5107 23.5879C32.6364 25.6354 31.4245 27.4339 29.875 28.9834C28.3255 30.5329 26.527 31.7448 24.4795 32.6191C22.432 33.5046 20.2406 33.9473 17.9053 33.9473ZM17.9053 31.125C19.8532 31.125 21.6794 30.7598 23.3838 30.0293C25.0882 29.2988 26.5879 28.2861 27.8828 26.9912C29.1777 25.6963 30.1904 24.1966 30.9209 22.4922C31.6514 20.7878 32.0166 18.9616 32.0166 17.0137C32.0166 15.0658 31.6514 13.2396 30.9209 11.5352C30.1904 9.81966 29.1777 8.31999 27.8828 7.03613C26.5879 5.74121 25.0882 4.72852 23.3838 3.99805C21.6794 3.26758 19.8532 2.90234 17.9053 2.90234C15.9574 2.90234 14.1312 3.26758 12.4268 3.99805C10.7223 4.72852 9.22266 5.74121 7.92773 7.03613C6.63281 8.31999 5.62012 9.81966 4.88965 11.5352C4.15918 13.2396 3.79395 15.0658 3.79395 17.0137C3.79395 18.9616 4.15918 20.7878 4.88965 22.4922C5.62012 24.1966 6.63281 25.6963 7.92773 26.9912C9.22266 28.2861 10.7223 29.2988 12.4268 30.0293C14.1312 30.7598 15.9574 31.125 17.9053 31.125ZM28.6963 17.0137C28.6963 17.5671 28.3753 18.0319 27.7334 18.4082C27.1025 18.7734 26.3333 18.9561 25.4258 18.9561H21.873C21.541 18.9561 21.2588 19.0778 21.0264 19.3213L15.1162 25.7627C14.8949 26.0062 14.6348 26.1279 14.3359 26.1279H13.3066C13.1406 26.1279 13.0133 26.0615 12.9248 25.9287C12.8363 25.7848 12.8307 25.6243 12.9082 25.4473L15.8633 18.9229L11.7295 18.458L10.2021 21.2803C10.0361 21.5459 9.78711 21.6787 9.45508 21.6787H9.05664C8.90169 21.6787 8.77441 21.6289 8.6748 21.5293C8.5752 21.4297 8.52539 21.3024 8.52539 21.1475V12.8965C8.52539 12.7305 8.5752 12.5977 8.6748 12.498C8.77441 12.3984 8.90169 12.3486 9.05664 12.3486H9.45508C9.78711 12.3486 10.0361 12.4814 10.2021 12.7471L11.7295 15.5693L15.8633 15.1045L12.9082 8.58008C12.8307 8.40299 12.8363 8.24805 12.9248 8.11523C13.0133 7.97135 13.1406 7.89941 13.3066 7.89941H14.3359C14.6348 7.89941 14.8949 8.02116 15.1162 8.26465L21.0264 14.7061C21.2588 14.9495 21.541 15.0713 21.873 15.0713H25.4258C26.3333 15.0713 27.1025 15.2594 27.7334 15.6357C28.3753 16.001 28.6963 16.4603 28.6963 17.0137Z" fill="#007AFF"/>
</svg>
