<svg width="33" height="23" viewBox="0 0 33 23" fill="none" xmlns="http://www.w3.org/2000/svg">
<path d="M7.68652 13.8965L28.646 8.30566C29.4598 8.08594 30.1719 7.75635 30.7822 7.31689C31.3926 6.87744 31.832 6.37695 32.1006 5.81543C32.3691 5.24577 32.3976 4.66797 32.186 4.08203C31.9826 3.53678 31.6082 3.12581 31.063 2.84912C30.5259 2.57243 29.8952 2.42594 29.1709 2.40967C28.4548 2.39339 27.7386 2.50732 27.0225 2.75146L19.6372 5.27832C19.3849 5.3597 19.153 5.39632 18.9414 5.38818C18.738 5.37191 18.4938 5.2946 18.209 5.15625L7.9917 0.334473C7.62549 0.171712 7.25928 0.143229 6.89307 0.249023L6.03857 0.505371C5.86768 0.562337 5.76188 0.680339 5.72119 0.859375C5.6805 1.03841 5.73747 1.20524 5.89209 1.35986L12.9966 8.92822L13.2896 7.43896L6.53906 9.7583L9.95703 9.86816L2.29102 7.146C2.10384 7.08089 1.9248 7.06868 1.75391 7.10938C1.59115 7.14193 1.42432 7.23551 1.25342 7.39014L0.887207 7.73193C0.748861 7.854 0.675618 7.99642 0.66748 8.15918C0.66748 8.32194 0.724447 8.46436 0.838379 8.58643L5.11084 13.396C5.41195 13.7297 5.77816 13.9331 6.20947 14.0063C6.64893 14.0796 7.14128 14.043 7.68652 13.8965ZM3.12109 22.3315H29.5737C29.9074 22.3315 30.1922 22.2095 30.4282 21.9653C30.6642 21.7293 30.7822 21.4486 30.7822 21.123C30.7822 20.7894 30.6642 20.5046 30.4282 20.2686C30.1922 20.0407 29.9074 19.9268 29.5737 19.9268H3.12109C2.79557 19.9268 2.51481 20.0407 2.27881 20.2686C2.04281 20.5046 1.9248 20.7894 1.9248 21.123C1.9248 21.4486 2.04281 21.7293 2.27881 21.9653C2.51481 22.2095 2.79557 22.3315 3.12109 22.3315Z" fill="black"/>
</svg>
