<svg width="20" height="20" viewBox="-0.1 0.2 18 18.2" fill="none" xmlns="http://www.w3.org/2000/svg">
<path d="M9.53406 1.5625C9.53406 1.1875 9.22156 0.875 8.84656 0.875C8.47938 0.875 8.16688 1.1875 8.16688 1.5625V3.20312C8.16688 3.57031 8.47938 3.88281 8.84656 3.88281C9.22156 3.88281 9.53406 3.57031 9.53406 3.20312V1.5625ZM12.7059 4.53906C12.4481 4.80469 12.4481 5.23438 12.7059 5.5C12.9716 5.75781 13.4091 5.76562 13.6747 5.5L14.8388 4.33594C15.1044 4.07031 15.1044 3.625 14.8388 3.36719C14.5809 3.10156 14.1434 3.10156 13.8856 3.36719L12.7059 4.53906ZM4.01844 5.5C4.28406 5.75781 4.72156 5.75781 4.97938 5.5C5.245 5.25 5.245 4.79688 4.98719 4.53906L3.82313 3.36719C3.57313 3.10938 3.12781 3.10156 2.86219 3.36719C2.60438 3.625 2.60438 4.07031 2.85438 4.32812L4.01844 5.5ZM8.84656 5.36719C6.66688 5.36719 4.86219 7.17188 4.86219 9.35938C4.86219 11.5391 6.66688 13.3438 8.84656 13.3438C11.0184 13.3438 12.8231 11.5391 12.8231 9.35938C12.8231 7.17188 11.0184 5.36719 8.84656 5.36719ZM16.62 10.0391C16.995 10.0391 17.3075 9.72656 17.3075 9.35938C17.3075 8.99219 16.995 8.67969 16.62 8.67969H14.9872C14.62 8.67969 14.3075 8.99219 14.3075 9.35938C14.3075 9.72656 14.62 10.0391 14.9872 10.0391H16.62ZM1.07313 8.67969C0.705938 8.67969 0.393438 8.99219 0.393438 9.35938C0.393438 9.72656 0.705938 10.0391 1.07313 10.0391H2.70594C3.08094 10.0391 3.39344 9.72656 3.39344 9.35938C3.39344 8.99219 3.08094 8.67969 2.70594 8.67969H1.07313ZM13.6669 13.2266C13.4091 12.9609 12.9716 12.9609 12.7059 13.2266C12.4481 13.4844 12.4481 13.9219 12.7059 14.1875L13.8856 15.3594C14.1434 15.6172 14.5809 15.6094 14.8388 15.3516C15.1044 15.0859 15.1044 14.6484 14.8388 14.3906L13.6669 13.2266ZM2.85438 14.3828C2.59656 14.6406 2.59656 15.0781 2.84656 15.3438C3.10438 15.6016 3.54969 15.6094 3.81531 15.3516L4.97938 14.1875C5.245 13.9297 5.245 13.4922 4.98719 13.2266C4.72938 12.9688 4.28406 12.9688 4.01844 13.2266L2.85438 14.3828ZM9.53406 15.5156C9.53406 15.1406 9.22156 14.8281 8.84656 14.8281C8.47938 14.8281 8.16688 15.1406 8.16688 15.5156V17.1562C8.16688 17.5234 8.47938 17.8359 8.84656 17.8359C9.22156 17.8359 9.53406 17.5234 9.53406 17.1562V15.5156ZM23.6913Z" fill="black"/>
</svg>
