<svg width="11" height="19" viewBox="0 0 11 19" fill="none" xmlns="http://www.w3.org/2000/svg">
<path d="M3.71429 15.8H2.64286V8.6H3.71429V15.8ZM6.03571 15.8H4.96429V8.6H6.03571V15.8ZM8.35714 15.8H7.28572V8.6H8.35714V15.8ZM9.07143 6.2H7.64286V0.8C7.64286 0.36 7.32143 0 6.92857 0H4.07143C3.67857 0 3.35714 0.36 3.35714 0.8V6.2H1.92857C1.14286 6.2 0.5 6.92 0.5 7.8V16.6C0.5 17.48 1.14286 18.2 1.92857 18.2C1.92857 18.64 2.25 19 2.64286 19C3.03571 19 3.35714 18.64 3.35714 18.2H7.64286C7.64286 18.64 7.96429 19 8.35714 19C8.75 19 9.07143 18.64 9.07143 18.2C9.85714 18.2 10.5 17.48 10.5 16.6V7.8C10.5 6.92 9.85714 6.2 9.07143 6.2ZM4.42857 1.2H6.57143V6.2H4.42857V1.2ZM9.07143 16.6H1.92857V7.8H9.07143V16.6Z" fill="white"/>
</svg>
