<svg width="38" height="33" viewBox="0 0 38 33" fill="none" xmlns="http://www.w3.org/2000/svg">
<path d="M37.4248 16.7188C37.4092 14.8594 34.8779 13.2031 31.6279 13.2031H25.0029C24.1279 13.2031 23.8154 13.0156 23.2686 12.4531L12.5029 1C12.1436 0.625 11.7373 0.4375 11.2842 0.4375H8.97169C8.56544 0.4375 8.31544 0.8125 8.51857 1.23438L14.1123 13.1719L5.98732 14.0625L3.08107 9.0625C2.84669 8.67188 2.50294 8.5 2.00294 8.5H1.26857C0.815443 8.5 0.502943 8.8125 0.502943 9.25V24.1875C0.502943 24.625 0.815443 24.9375 1.26857 24.9375H2.00294C2.50294 24.9375 2.84669 24.75 3.08107 24.375L5.98732 19.375L14.1123 20.2656L8.51857 32.1875C8.31544 32.625 8.56544 33 8.97169 33H11.2842C11.7373 33 12.1436 32.8125 12.5029 32.4375L23.2686 20.9844C23.8154 20.4062 24.1279 20.2344 25.0029 20.2344H31.6279C34.8779 20.2344 37.4092 18.5781 37.4248 16.7188Z" fill="black"/>
</svg>
