<svg width="27" height="22" viewBox="0 0 27 22" fill="none" xmlns="http://www.w3.org/2000/svg">
<path d="M18.0288 6.69434C19.3472 6.69434 20.4702 5.87646 20.9341 4.7168H24.9746C25.5728 4.7168 26.0854 4.19189 26.0854 3.55713C26.0854 2.92236 25.585 2.39746 24.9746 2.39746H20.9463C20.4824 1.23779 19.3472 0.419922 18.0288 0.419922C16.7104 0.419922 15.5752 1.23779 15.1113 2.39746H2.06201C1.41504 2.39746 0.914551 2.92236 0.914551 3.55713C0.914551 4.19189 1.42725 4.7168 2.06201 4.7168H15.1113C15.5752 5.87646 16.7104 6.69434 18.0288 6.69434ZM18.0288 5.04639C17.1987 5.04639 16.5273 4.38721 16.5273 3.55713C16.5273 2.70264 17.1987 2.05566 18.0288 2.05566C18.8711 2.05566 19.5181 2.70264 19.5181 3.55713C19.5181 4.38721 18.8711 5.04639 18.0288 5.04639ZM2.01318 10.0024C1.41504 10.0024 0.914551 10.5151 0.914551 11.1621C0.914551 11.7847 1.42725 12.3096 2.01318 12.3096H6.2002C6.65186 13.4692 7.78711 14.2993 9.11768 14.2993C10.4238 14.2993 11.5591 13.4692 12.0229 12.3096H24.938C25.5728 12.3096 26.0854 11.7969 26.0854 11.1621C26.0854 10.5151 25.585 10.0024 24.938 10.0024H12.0229C11.5591 8.84277 10.4238 8.0249 9.11768 8.0249C7.79932 8.0249 6.66406 8.84277 6.2002 10.0024H2.01318ZM9.11768 12.6514C8.27539 12.6514 7.61621 11.9922 7.61621 11.1621C7.61621 10.3076 8.27539 9.66064 9.11768 9.66064C9.95996 9.66064 10.6069 10.3076 10.6069 11.1621C10.6069 11.9922 9.95996 12.6514 9.11768 12.6514ZM18.0288 21.8921C19.3472 21.8921 20.4824 21.0742 20.9463 19.9146H24.9746C25.5728 19.9146 26.0854 19.3896 26.0854 18.7549C26.0854 18.1079 25.585 17.5952 24.9746 17.5952H20.9341C20.4824 16.4355 19.3472 15.6177 18.0288 15.6177C16.7104 15.6177 15.5752 16.4355 15.1113 17.5952H2.06201C1.41504 17.5952 0.914551 18.1201 0.914551 18.7549C0.914551 19.3896 1.42725 19.9146 2.06201 19.9146H15.1113C15.5752 21.0742 16.7104 21.8921 18.0288 21.8921ZM18.0288 20.2563C17.1987 20.2563 16.5273 19.585 16.5273 18.7549C16.5273 17.9126 17.1987 17.2534 18.0288 17.2534C18.8711 17.2534 19.5181 17.9126 19.5181 18.7549C19.5181 19.585 18.8711 20.2563 18.0288 20.2563Z" fill="black" />
</svg>
