<svg width="27" height="38" viewBox="0 0 27 38" fill="none" xmlns="http://www.w3.org/2000/svg">
<path d="M3.28418 33.6187L21.605 36.8574C24.8921 37.4375 26.8901 35.6167 26.8901 32.0234V12.0913C26.8901 10.335 26.4067 9.1748 25.4561 8.38525V5.25928C25.4561 1.87549 23.1841 0.248047 19.3652 0.924805L2.78467 3.85742C1.14111 4.05078 0.109863 5.2915 0.109863 7.2251V29.9609C0.109863 32.0396 1.17334 33.248 3.28418 33.6187ZM21.9272 7.04785L10.3579 5.00146L20.2837 3.35791C21.895 3.08398 22.8618 3.76074 22.8618 5.1626V7.24121C22.5557 7.16064 22.2495 7.09619 21.9272 7.04785ZM3.9126 31.0566C3.09082 30.9277 2.7041 30.4443 2.7041 29.5903V7.66016C2.7041 6.79004 3.28418 6.35498 4.23486 6.51611L21.7983 9.59375C23.4258 9.8999 24.2959 10.5605 24.2959 12.0591V31.7495C24.2959 33.5703 23.2324 34.4888 21.4922 34.1665L3.9126 31.0566ZM6.73242 13.606L19.1558 15.7974C19.9131 15.9263 20.3804 15.459 20.3804 14.7822C20.3804 14.1699 20.0742 13.8477 19.5103 13.7349L7.15137 11.5757C6.41016 11.4468 5.89453 11.8818 5.89453 12.5425C5.89453 13.1064 6.20068 13.5093 6.73242 13.606ZM6.73242 19.8901L19.1558 22.0815C19.9131 22.2104 20.3804 21.7432 20.3804 21.0664C20.3804 20.4541 20.0742 20.1318 19.5103 20.019L7.15137 17.8599C6.41016 17.731 5.89453 18.166 5.89453 18.8267C5.89453 19.3906 6.20068 19.7935 6.73242 19.8901Z" fill="black"/>
</svg>
