<svg width="32" height="33" viewBox="0 0 32 33" fill="none" xmlns="http://www.w3.org/2000/svg">
<path d="M1.51416 10.8647C2.36816 10.8647 2.81934 10.3813 2.81934 9.54346V5.74072C2.81934 4.06494 3.70557 3.21094 5.31689 3.21094H9.21631C10.0703 3.21094 10.5376 2.74365 10.5376 1.90576C10.5376 1.06787 10.0703 0.616699 9.21631 0.616699H5.28467C1.91699 0.616699 0.225098 2.27637 0.225098 5.5957V9.54346C0.225098 10.3813 0.692383 10.8647 1.51416 10.8647ZM30.4697 10.8647C31.3237 10.8647 31.7749 10.3813 31.7749 9.54346V5.5957C31.7749 2.27637 30.083 0.616699 26.7153 0.616699H22.7676C21.9297 0.616699 21.4624 1.06787 21.4624 1.90576C21.4624 2.74365 21.9297 3.21094 22.7676 3.21094H26.667C28.2622 3.21094 29.1807 4.06494 29.1807 5.74072V9.54346C29.1807 10.3813 29.6479 10.8647 30.4697 10.8647ZM8.97461 15.6826H14.582C14.9849 15.6826 15.291 15.3765 15.291 14.9897V9.36621C15.291 8.97949 14.9849 8.65723 14.582 8.65723H8.97461C8.57178 8.65723 8.26562 8.97949 8.26562 9.36621V14.9897C8.26562 15.3765 8.57178 15.6826 8.97461 15.6826ZM17.3857 15.6826H22.9932C23.396 15.6826 23.7021 15.3765 23.7021 14.9897V9.36621C23.7021 8.97949 23.396 8.65723 22.9932 8.65723H17.3857C16.9829 8.65723 16.6768 8.97949 16.6768 9.36621V14.9897C16.6768 15.3765 16.9829 15.6826 17.3857 15.6826ZM9.66748 14.2808V10.0591H13.8892V14.2808H9.66748ZM18.0786 14.2808V10.0591H22.3003V14.2808H18.0786ZM10.8921 13.0562H12.6646V11.2837H10.8921V13.0562ZM19.3193 13.0562H21.0757V11.2837H19.3193V13.0562ZM8.97461 24.1099H14.582C14.9849 24.1099 15.291 23.8037 15.291 23.4009V17.7935C15.291 17.3906 14.9849 17.0845 14.582 17.0845H8.97461C8.57178 17.0845 8.26562 17.3906 8.26562 17.7935V23.4009C8.26562 23.8037 8.57178 24.1099 8.97461 24.1099ZM16.8862 19.0342H18.6426V17.2778H16.8862V19.0342ZM21.7363 19.0342H23.4927V17.2778H21.7363V19.0342ZM9.66748 22.708V18.4863H13.8892V22.708H9.66748ZM10.8921 21.4673H12.6646V19.7109H10.8921V21.4673ZM19.3032 21.4673H21.0757V19.7109H19.3032V21.4673ZM5.28467 32.1504H9.21631C10.0703 32.1504 10.5376 31.6831 10.5376 30.8613C10.5376 30.0234 10.0703 29.5562 9.21631 29.5562H5.31689C3.70557 29.5562 2.81934 28.7021 2.81934 27.0264V23.2236C2.81934 22.3696 2.35205 21.9023 1.51416 21.9023C0.67627 21.9023 0.225098 22.3696 0.225098 23.2236V27.1553C0.225098 30.4907 1.91699 32.1504 5.28467 32.1504ZM22.7676 32.1504H26.7153C30.083 32.1504 31.7749 30.4746 31.7749 27.1553V23.2236C31.7749 22.3696 31.3076 21.9023 30.4697 21.9023C29.6318 21.9023 29.1807 22.3696 29.1807 23.2236V27.0264C29.1807 28.7021 28.2622 29.5562 26.667 29.5562H22.7676C21.9297 29.5562 21.4624 30.0234 21.4624 30.8613C21.4624 31.6831 21.9297 32.1504 22.7676 32.1504ZM16.8862 23.9004H18.6426V22.144H16.8862V23.9004ZM21.7363 23.9004H23.4927V22.144H21.7363V23.9004Z" fill="black"/>
</svg>
