<svg width="21" height="21" viewBox="0 0 21 21" fill="none" xmlns="http://www.w3.org/2000/svg">
<path d="M1.95264 13.3872H13.2832C14.4868 13.3872 15.1841 12.7397 15.1841 11.6025V4.8623C15.1841 3.7334 14.4868 3.07764 13.2832 3.07764H11.042V2.58789C11.042 1.32617 10.3945 0.695312 9.10791 0.695312H6.12793C4.87451 0.695312 4.20215 1.35938 4.20215 2.58789V3.07764H1.95264C0.749023 3.07764 0.0600586 3.7334 0.0600586 4.8623V11.6025C0.0600586 12.7397 0.749023 13.3872 1.95264 13.3872ZM5.37256 2.51318C5.37256 2.05664 5.62158 1.80762 6.10303 1.80762H9.13281C9.61426 1.80762 9.87158 2.05664 9.87158 2.51318V3.07764H5.37256V2.51318ZM0.724121 16.0435H15.6489C17.2095 16.0435 17.9233 15.3379 17.9233 13.8022V5.55127C17.9233 4.854 18.272 4.49707 18.9609 4.49707H19.7412C20.0981 4.49707 20.4053 4.18994 20.4053 3.82471C20.4053 3.46777 20.0981 3.16064 19.7412 3.16064H18.8613C17.3008 3.16064 16.5869 3.85791 16.5869 5.40186V13.6528C16.5869 14.3501 16.2383 14.707 15.5493 14.707H0.724121C0.358887 14.707 0.0517578 14.9976 0.0517578 15.3711C0.0517578 15.7446 0.358887 16.0435 0.724121 16.0435ZM1.96094 12.1836C1.521 12.1836 1.27197 11.9595 1.27197 11.5527V4.91211C1.27197 4.51367 1.521 4.28955 1.96094 4.28955H2.77441V12.1836H1.96094ZM3.97803 12.1836V4.28955H11.2578V12.1836H3.97803ZM13.2749 4.28955C13.7231 4.28955 13.9722 4.51367 13.9722 4.91211V11.5527C13.9722 11.9595 13.7231 12.1836 13.2749 12.1836H12.4614V4.28955H13.2749ZM3.6626 20.3184C4.49268 20.3184 5.19824 19.6128 5.19824 18.7827C5.19824 17.936 4.49268 17.2305 3.6626 17.2305C2.82422 17.2305 2.11865 17.936 2.11865 18.7827C2.11865 19.6128 2.82422 20.3184 3.6626 20.3184ZM12.561 20.3184C13.3994 20.3184 14.0967 19.6128 14.0967 18.7827C14.0967 17.936 13.3994 17.2305 12.561 17.2305C11.7227 17.2305 11.0254 17.936 11.0254 18.7827C11.0254 19.6128 11.7227 20.3184 12.561 20.3184Z" fill="white"/>
</svg>
