<svg width="40" height="40" viewBox="-5.5 0 35 39" fill="none" xmlns="http://www.w3.org/2000/svg">
<path d="M3.17188 38.0264C2.82878 38.4359 2.43587 38.6406 1.99316 38.6406C1.55046 38.6517 1.15755 38.5189 0.814453 38.2422C0.482422 37.9655 0.283203 37.6058 0.216797 37.1631C0.161458 36.7204 0.344076 36.2555 0.764648 35.7686L5.92773 29.6426L6.80762 25.6084L9.61328 29.1279L9.19824 30.4062C9.08757 30.7272 8.98796 30.9652 8.89941 31.1201C8.82194 31.2751 8.65592 31.502 8.40137 31.8008L3.17188 38.0264ZM15.9219 37.5117L12.2695 30.124C12.1921 29.9912 12.1257 29.8639 12.0703 29.7422C12.015 29.6204 11.8988 29.4489 11.7217 29.2275L8.20215 24.7949C7.53809 23.9648 7.07878 23.251 6.82422 22.6533C6.56966 22.0446 6.48112 21.2588 6.55859 20.2959L6.85742 16.4609C6.87956 16.2285 6.76888 16.0625 6.52539 15.9629C6.2819 15.8633 6.04395 15.9186 5.81152 16.1289L4.5332 17.291L4.15137 21.8066C4.09603 22.36 3.92448 22.7751 3.63672 23.0518C3.34896 23.3285 2.96712 23.4502 2.49121 23.417C2.00423 23.3949 1.62793 23.2178 1.3623 22.8857C1.10775 22.5537 0.99707 22.1276 1.03027 21.6074L1.3457 17.4902C1.38997 16.9258 1.49512 16.4443 1.66113 16.0459C1.83822 15.6475 2.14811 15.2324 2.59082 14.8008L5.24707 12.1777C6.09928 11.3477 6.87956 10.7113 7.58789 10.2686C8.29622 9.81478 9.1097 9.58789 10.0283 9.58789C11.2568 9.58789 12.1976 9.99186 12.8506 10.7998C13.5146 11.6077 13.8024 12.6094 13.7139 13.8047L13.3652 18.835C13.2988 19.7314 13.1992 20.5117 13.0664 21.1758C12.9336 21.8398 12.7122 22.6201 12.4023 23.5166L12.2363 23.9814L14.5107 27.2021C14.6768 27.4346 14.8483 27.6891 15.0254 27.9658C15.2025 28.2425 15.3574 28.5192 15.4902 28.7959L19.043 36.001C19.3307 36.5876 19.3861 37.0967 19.209 37.5283C19.0319 37.96 18.7331 38.2699 18.3125 38.458C17.903 38.6462 17.4658 38.6738 17.001 38.541C16.5472 38.4082 16.1875 38.0651 15.9219 37.5117ZM21.9814 16.4111C22.5016 16.4111 22.9222 16.555 23.2432 16.8428C23.5641 17.1195 23.7246 17.4902 23.7246 17.9551C23.7246 18.4531 23.5641 18.8405 23.2432 19.1172C22.9333 19.3939 22.5127 19.5322 21.9814 19.5322H18.2295C17.7093 19.5322 17.2998 19.4824 17.001 19.3828C16.7021 19.2721 16.4144 19.0729 16.1377 18.7852L15.0586 17.7227L15.3242 13.4893L17.9473 16.4111H21.9814ZM11.9707 8.02734C11.2956 8.02734 10.6813 7.86686 10.1279 7.5459C9.57454 7.21387 9.13184 6.77116 8.7998 6.21777C8.47884 5.66439 8.31836 5.05013 8.31836 4.375C8.31836 3.69987 8.47884 3.08561 8.7998 2.53223C9.13184 1.97884 9.57454 1.54167 10.1279 1.2207C10.6813 0.888672 11.2956 0.722656 11.9707 0.722656C12.6458 0.722656 13.2601 0.888672 13.8135 1.2207C14.3669 1.54167 14.804 1.97884 15.125 2.53223C15.457 3.08561 15.623 3.69987 15.623 4.375C15.623 5.05013 15.457 5.66439 15.125 6.21777C14.804 6.77116 14.3669 7.21387 13.8135 7.5459C13.2601 7.86686 12.6458 8.02734 11.9707 8.02734Z" fill="black"/>
</svg>
