<svg width="44" height="11" viewBox="0 0 44 11" fill="none" xmlns="http://www.w3.org/2000/svg">
<g clip-path="url(#clip0_31_252)">
<path d="M5.78757 5.8987H3.14469C3.02456 5.8987 2.96995 5.9533 2.96995 6.05159C2.96995 6.29185 3.101 6.52119 3.36311 6.73961C3.62521 6.95803 3.90916 7.06724 4.21495 7.06724C4.38968 7.06724 4.59718 7.03448 4.8156 6.96895C5.03402 6.90343 5.21968 6.81606 5.36165 6.71777C5.4927 6.6304 5.59099 6.58672 5.66744 6.58672C5.76573 6.58672 5.86402 6.64132 5.95138 6.76146C6.04967 6.88159 6.09336 7.00172 6.09336 7.13277C6.09336 7.40579 5.92954 7.65698 5.59099 7.90816C5.00126 8.35592 4.31323 8.57434 3.53784 8.57434C2.75153 8.57434 2.09627 8.345 1.56114 7.88632C1.29904 7.65698 1.09154 7.39487 0.927727 7.07816C0.709308 6.65224 0.600098 6.21541 0.600098 5.7458C0.600098 5.12331 0.785755 4.55542 1.16799 4.05305C1.49562 3.61621 1.91062 3.2995 2.4239 3.08108C2.80614 2.91727 3.22114 2.84082 3.65798 2.84082C4.36784 2.84082 4.96849 3.0374 5.47086 3.44147C5.72204 3.63805 5.91862 3.87831 6.07151 4.16226C6.24625 4.47897 6.33362 4.78476 6.33362 5.07962C6.33362 5.31988 6.27901 5.51646 6.18072 5.68028C6.07151 5.82225 5.94046 5.8987 5.78757 5.8987ZM3.29758 4.85028H3.86547C4.10574 4.85028 4.22587 4.74107 4.22587 4.52265C4.22587 4.32608 4.17126 4.15134 4.05113 4.03121C3.931 3.90016 3.78903 3.84555 3.59245 3.84555C3.38495 3.84555 3.22114 3.93292 3.101 4.09673C2.99179 4.24963 2.93719 4.40252 2.93719 4.56634C2.93719 4.67555 2.95903 4.75199 3.01364 4.8066C3.06824 4.82844 3.15561 4.85028 3.29758 4.85028Z" fill="#FF6600"/>
<path d="M9.89386 2.81885C10.5491 2.81885 11.0952 2.98266 11.5429 3.31029C11.7832 3.48503 11.947 3.68161 12.0453 3.91095C12.1436 4.14029 12.1873 4.44607 12.1873 4.83923L12.1763 5.66923C12.1763 6.24804 12.22 6.61935 12.2965 6.79409C12.3402 6.88146 12.3729 6.92514 12.4166 6.94698C12.4494 6.96882 12.5367 6.99067 12.6569 7.01251C12.777 7.03435 12.8316 7.1108 12.8316 7.25277C12.8316 7.4275 12.7552 7.62408 12.6132 7.80974C12.4712 8.00632 12.2856 8.17013 12.0562 8.30118C11.7723 8.465 11.4774 8.55237 11.1716 8.55237C10.7785 8.55237 10.4727 8.42131 10.2433 8.14829C10.1669 8.05 10.0904 8.00632 10.0249 8.00632C9.94846 8.00632 9.85017 8.05 9.73004 8.14829C9.35873 8.42131 8.93281 8.55237 8.46321 8.55237C7.97177 8.55237 7.57861 8.44316 7.27282 8.23566C7.07625 8.09368 6.92335 7.91895 6.80322 7.68961C6.68309 7.47119 6.62848 7.23093 6.62848 6.99066C6.62848 6.59751 6.78138 6.25896 7.09809 5.96409C7.58953 5.49449 8.32124 5.25423 9.2932 5.25423C9.51162 5.25423 9.64267 5.23239 9.69728 5.1887C9.75188 5.14502 9.78465 5.04673 9.78465 4.89384C9.78465 4.50068 9.74096 4.20581 9.66452 4.03108C9.57715 3.85634 9.4461 3.76897 9.26044 3.76897C9.15123 3.76897 9.05294 3.80174 8.96557 3.86726C8.87821 3.93279 8.769 4.05292 8.63794 4.23858C8.31032 4.70818 7.96084 4.94844 7.60045 4.94844C7.4148 4.94844 7.27282 4.89384 7.15269 4.78463C7.03256 4.67542 6.97796 4.53344 6.97796 4.35871C6.97796 4.18397 7.0544 3.99831 7.19638 3.82358C7.33835 3.64884 7.53493 3.48503 7.78611 3.35398C8.45229 2.99358 9.15123 2.81885 9.89386 2.81885ZM9.51162 6.06238C9.34781 6.06238 9.20584 6.12791 9.08571 6.25896C8.96557 6.39001 8.90005 6.55383 8.90005 6.73948C8.90005 6.91422 8.94373 7.06711 9.0311 7.17632C9.11847 7.28553 9.22768 7.34014 9.36965 7.34014C9.66452 7.34014 9.81741 7.08895 9.81741 6.58659C9.81741 6.37909 9.79557 6.24804 9.75188 6.17159C9.71912 6.10606 9.63175 6.06238 9.51162 6.06238Z" fill="#FF6600"/>
<path d="M15.4417 2.81903C15.6274 2.81903 15.9332 2.86271 16.3591 2.93916C16.4464 2.95008 16.512 2.961 16.5666 2.961C16.6321 2.961 16.7522 2.92824 16.9379 2.86271C17.0253 2.82995 17.1017 2.80811 17.1563 2.80811C17.331 2.80811 17.5058 2.91732 17.6805 3.13574C17.8225 3.31047 17.9426 3.50705 18.03 3.71455C18.1174 3.92204 18.161 4.1077 18.161 4.2606C18.161 4.41349 18.1064 4.53362 18.0081 4.63191C17.8989 4.7302 17.7679 4.7848 17.615 4.7848C17.4839 4.7848 17.3638 4.75204 17.2655 4.68651C17.1672 4.62099 16.9925 4.47902 16.7741 4.27152C16.5338 4.04218 16.3372 3.92205 16.1843 3.92205C16.0751 3.92205 15.9878 3.96573 15.9113 4.04218C15.8349 4.11862 15.7912 4.20599 15.7912 4.3152C15.7912 4.50086 15.9659 4.66467 16.3154 4.82849C16.9488 5.11243 17.4293 5.41822 17.7679 5.75677C18.0518 6.04072 18.1938 6.39019 18.1938 6.79427C18.1938 7.31847 17.9645 7.74439 17.5058 8.09386C17.1126 8.39965 16.6321 8.55254 16.0642 8.55254C15.9222 8.55254 15.6492 8.5307 15.267 8.4761C14.9066 8.43241 14.6991 8.41057 14.6554 8.41057C14.6117 8.41057 14.5462 8.42149 14.4916 8.43241C14.3824 8.44333 14.3059 8.45425 14.2513 8.45425C14.0766 8.45425 13.9346 8.41057 13.8363 8.3232C13.6834 8.18123 13.5415 7.96281 13.4104 7.66794C13.2794 7.37308 13.2138 7.11097 13.2138 6.90347C13.2138 6.56492 13.3449 6.39019 13.6179 6.39019C13.7271 6.39019 13.8145 6.42295 13.9019 6.48848C13.9892 6.554 14.1749 6.73966 14.4588 7.04545C14.6117 7.20926 14.7428 7.31847 14.8411 7.384C14.9394 7.44952 15.0486 7.47137 15.1687 7.47137C15.2888 7.47137 15.3871 7.4386 15.4636 7.37308C15.54 7.30755 15.5728 7.22018 15.5728 7.11097C15.5728 6.94716 15.4308 6.79426 15.1359 6.65229C14.5353 6.35743 14.0984 6.05164 13.8363 5.73493C13.5742 5.41822 13.4323 5.05783 13.4323 4.64283C13.4323 4.19507 13.5633 3.81283 13.8363 3.49613C14.2295 3.05929 14.7646 2.81903 15.4417 2.81903Z" fill="#FF6600"/>
<path d="M24.0038 5.58194L23.2611 7.61324C23.0755 8.11561 22.8898 8.5306 22.7042 8.84731C22.5185 9.16402 22.311 9.43705 22.0708 9.66639C21.5902 10.1251 21.0005 10.3653 20.3125 10.3653C19.7555 10.3653 19.3077 10.2234 18.9692 9.92849C18.7071 9.69915 18.576 9.41521 18.576 9.07665C18.576 8.79271 18.6634 8.55245 18.8491 8.35587C19.0347 8.15929 19.2641 8.061 19.5262 8.061C19.7992 8.061 20.0067 8.14837 20.1814 8.33403C20.2579 8.4214 20.3125 8.48692 20.3343 8.55245C20.3562 8.61797 20.3998 8.75995 20.4544 8.96745C20.4981 9.13126 20.5855 9.21863 20.7384 9.21863C20.8585 9.21863 20.9459 9.16402 21.0333 9.06573C21.1206 8.96744 21.1534 8.83639 21.1534 8.69442C21.1534 8.51968 21.0551 8.22482 20.8585 7.80982L19.5043 4.9376C19.3624 4.64274 19.2531 4.45708 19.1876 4.38063C19.1112 4.30418 18.9583 4.21682 18.718 4.10761C18.6416 4.07484 18.576 4.02024 18.5214 3.93287C18.4668 3.8455 18.445 3.75814 18.445 3.68169C18.445 3.35406 18.7726 3.12472 19.4388 3.00459C19.8756 2.92814 20.378 2.88446 20.9459 2.88446C21.339 2.88446 21.6558 2.92814 21.8851 3.00459C22.1909 3.1138 22.3438 3.29945 22.3438 3.56156C22.3438 3.65985 22.3001 3.76906 22.2127 3.88919C22.1254 4.00932 22.0926 4.11853 22.0926 4.20589C22.0926 4.29326 22.1144 4.39155 22.1472 4.48984C22.1909 4.58813 22.2673 4.75194 22.3984 4.98129C22.5404 5.24339 22.6605 5.37444 22.7697 5.37444C22.8898 5.37444 23.01 5.25431 23.1301 5.02497C23.2502 4.79563 23.3157 4.57721 23.3157 4.35879C23.3157 4.18405 23.2721 4.04208 23.1738 3.94379C23.0318 3.77998 22.9554 3.62708 22.9554 3.50695C22.9554 3.3213 23.0864 3.1684 23.3376 3.04827C23.5888 2.93906 23.9273 2.87354 24.3532 2.87354C25.1505 2.87354 25.5436 3.05919 25.5436 3.44143C25.5436 3.5834 25.4999 3.69261 25.4235 3.77998C25.3471 3.86735 25.1942 3.94379 24.9867 4.02024C24.8119 4.08576 24.6699 4.19498 24.5607 4.35879C24.4078 4.58813 24.2222 5.00313 24.0038 5.58194Z" fill="#FF6600"/>
<path d="M30.4035 0.634766C30.8185 0.634766 31.2444 0.667529 31.6812 0.743975C32.0307 0.79858 32.2928 0.885949 32.4457 0.995158C32.5986 1.10437 32.675 1.24634 32.675 1.432C32.675 1.55213 32.6423 1.6395 32.5877 1.70502C32.5331 1.77055 32.4129 1.84699 32.2273 1.94528C32.0088 2.05449 31.8887 2.18555 31.856 2.33844C31.8232 2.49133 31.7904 3.08107 31.7686 4.09672C31.7577 5.09053 31.7467 5.68026 31.7358 5.87684C31.7249 6.07342 31.7031 6.26999 31.6703 6.45565C31.5611 7.0017 31.3427 7.42762 31.015 7.74433C30.742 7.99551 30.4035 8.20301 29.9775 8.34498C29.5516 8.48695 29.1148 8.5634 28.6452 8.5634C28.2302 8.5634 27.8152 8.5088 27.4002 8.39959C26.9852 8.29038 26.6248 8.13748 26.319 7.95183C26.0678 7.79893 25.8603 7.58051 25.7184 7.31841C25.5655 7.0563 25.489 6.76144 25.489 6.46657C25.489 6.09526 25.6092 5.77855 25.8385 5.53829C26.0788 5.29803 26.3736 5.16697 26.7231 5.16697C27.0726 5.16697 27.3674 5.26526 27.6077 5.47276C27.848 5.68026 27.9681 5.94237 27.9681 6.24815C27.9681 6.3246 27.9462 6.45565 27.9026 6.64131C27.8916 6.67407 27.8916 6.71775 27.8916 6.76144C27.8916 6.88157 27.9353 6.97986 28.0227 7.0563C28.1101 7.13275 28.2193 7.16551 28.3612 7.16551C28.6124 7.16551 28.809 7.0563 28.9619 6.82696C29.1148 6.59762 29.1912 6.30276 29.1912 5.94237L29.1803 5.42908L29.1694 4.05303C29.1366 3.22304 29.1148 2.7316 29.0929 2.5787C29.0711 2.42581 29.0383 2.30568 28.9619 2.21831C28.9073 2.14186 28.8527 2.09818 28.809 2.07634C28.7653 2.05449 28.6452 2.02173 28.4595 1.96713C28.3722 1.94528 28.2957 1.9016 28.2302 1.81423C28.1647 1.72686 28.1319 1.6395 28.1319 1.54121C28.1319 1.34463 28.2083 1.18082 28.3722 1.06069C28.536 0.940554 28.7872 0.842264 29.1475 0.765817C29.5625 0.678449 29.9775 0.634766 30.4035 0.634766Z" fill="#FF6600"/>
<path d="M38.1464 5.8987H35.5145C35.3944 5.8987 35.3397 5.9533 35.3397 6.05159C35.3397 6.29185 35.4708 6.52119 35.7329 6.73961C35.995 6.95803 36.279 7.06724 36.5847 7.06724C36.7595 7.06724 36.967 7.03448 37.1854 6.96895C37.4038 6.90343 37.5895 6.81606 37.7314 6.71777C37.8625 6.6304 37.9608 6.58672 38.0372 6.58672C38.1355 6.58672 38.2338 6.64132 38.3212 6.76146C38.4195 6.88159 38.4632 7.00172 38.4632 7.13277C38.4632 7.40579 38.2993 7.65698 37.9608 7.90816C37.3711 8.35592 36.683 8.57434 35.9076 8.57434C35.1213 8.57434 34.4661 8.345 33.9309 7.88632C33.6688 7.65698 33.4613 7.39487 33.2975 7.07816C33.0791 6.65224 32.9699 6.21541 32.9699 5.7458C32.9699 5.12331 33.1556 4.55542 33.5378 4.05305C33.8654 3.61621 34.2804 3.2995 34.7937 3.08108C35.1759 2.91727 35.5909 2.84082 36.0278 2.84082C36.7376 2.84082 37.3383 3.0374 37.8407 3.44147C38.0918 3.63805 38.2884 3.87831 38.4413 4.16226C38.616 4.47897 38.7034 4.78476 38.7034 5.07962C38.7034 5.31988 38.6488 5.51646 38.5505 5.68028C38.4413 5.82225 38.3103 5.8987 38.1464 5.8987ZM35.6565 4.85028H36.2243C36.4646 4.85028 36.5847 4.74107 36.5847 4.52265C36.5847 4.32608 36.5301 4.15134 36.41 4.03121C36.2899 3.90016 36.1479 3.84555 35.9513 3.84555C35.7438 3.84555 35.58 3.93292 35.4599 4.09673C35.3507 4.24963 35.2961 4.40252 35.2961 4.56634C35.2961 4.67555 35.3179 4.75199 35.3725 4.8066C35.4271 4.82844 35.5254 4.85028 35.6565 4.85028Z" fill="#FF6600"/>
<path d="M42.3073 4.29307V6.1824C42.3073 6.41174 42.3619 6.58648 42.4712 6.72845C42.5804 6.87042 42.7223 6.94687 42.8971 6.94687C43.039 6.94687 43.2356 6.88134 43.4759 6.75029C43.5305 6.71753 43.5851 6.69569 43.6397 6.69569C43.7271 6.69569 43.8144 6.75029 43.8909 6.8595C43.9673 6.96871 44.0001 7.08884 44.0001 7.20897C44.0001 7.43831 43.869 7.66765 43.6179 7.87515C43.0827 8.32291 42.4493 8.55225 41.6848 8.55225C41.0842 8.55225 40.6037 8.38844 40.2433 8.04989C39.8829 7.71134 39.6972 7.26358 39.6972 6.71753V4.12925C39.6972 4.04189 39.6863 3.98728 39.6645 3.96544C39.6426 3.9436 39.588 3.93268 39.5006 3.93268H38.9437C38.8345 3.93268 38.7689 3.91083 38.7362 3.87807C38.7034 3.84531 38.6925 3.75794 38.6925 3.62689V3.37571C38.6925 3.2665 38.7362 3.17913 38.8235 3.12452L41.39 1.50822C41.4555 1.47546 41.532 1.45361 41.6302 1.45361H42.0889C42.1872 1.45361 42.2418 1.47546 42.2746 1.51914C42.3073 1.56282 42.3183 1.65019 42.3183 1.77032V2.52387C42.3183 2.63308 42.3401 2.70953 42.3729 2.74229C42.4056 2.77505 42.4821 2.79689 42.6022 2.79689H43.6397C43.7817 2.79689 43.869 2.81874 43.9127 2.87334C43.9564 2.92795 43.9783 3.02624 43.9783 3.20097V3.5286C43.9783 3.70334 43.9564 3.83439 43.9018 3.89991C43.8472 3.96544 43.7489 3.9982 43.6179 3.9982H42.6022C42.493 3.9982 42.4275 4.02005 42.3947 4.05281C42.3292 4.11833 42.3073 4.18386 42.3073 4.29307Z" fill="#FF6600"/>
</g>
<defs>
<clipPath id="clip0_31_252">
<rect width="43.4" height="9.7306" fill="white" transform="translate(0.600098 0.634766)"/>
</clipPath>
</defs>
</svg>
