<svg width="45" height="18" viewBox="0 0 45 18" fill="none" xmlns="http://www.w3.org/2000/svg">
<path d="M32.7753 1.73029C32.5739 1.73029 32.4044 1.73553 32.309 1.74612C32.1977 1.94756 32.0334 2.21779 31.7896 2.59411C35.5839 2.59411 39.0285 2.90672 42.8386 3.59029L41.7629 4.62899C38.3236 4.01958 35.4673 3.7759 31.8267 3.7759C31.2969 3.7759 31.1855 3.7759 31.0584 3.78113C30.9311 3.97184 30.6449 4.34279 30.3589 4.68732C30.6821 4.66613 31.3074 4.65554 32.1711 4.65554C35.1653 4.65554 37.9633 4.87803 40.9998 5.36566L39.924 6.40958C37.6135 6.04923 34.789 5.84256 32.2559 5.84256C31.3551 5.84256 30.3323 5.87435 29.4155 5.92732C29.2089 6.16577 28.6684 6.74875 28.5041 6.92887C29.7176 6.80173 31.053 6.74339 32.6428 6.74339C34.9057 6.74339 37.0678 6.89185 39.1133 7.19387L38.0374 8.2272C36.5802 8.04709 34.8102 7.94113 33.247 7.94113C29.2142 7.94113 26.0346 8.81542 22.749 10.8239C25.8809 14.1836 31.0107 16.3086 35.9814 16.3086H36.4477L34.7096 17.9888C27.5396 16.6426 19.9934 13.4895 13.6184 9.17041C7.48712 5.03172 5.34094 3.80768 0.555712 1.69328L0.523926 0.463745L3.76178 1.8522L4.86404 0.977795L15.436 5.82137L14.7471 6.37244L9.32069 4.01435L8.78546 4.43292L11.6047 6.00684C13.9841 7.33173 15.7964 7.92518 17.471 7.92518C21.1328 7.92518 24.4184 5.32851 26.538 0.765892C28.1332 0.559101 29.8342 0.463745 31.8797 0.463745C36.0767 0.463745 40.1518 0.866482 44.7675 1.73029L43.6441 2.8166C40.772 2.21779 35.8912 1.73029 32.7753 1.73029Z" fill="#0A1D3D"/>
</svg>
