<svg width="42" height="12" viewBox="0 0 42 12" fill="none" xmlns="http://www.w3.org/2000/svg">
<path d="M29.8147 8.96859H28.2831V3.07109H29.8147V8.96859ZM26.1892 3.07109L25.2035 7.02362L24.0498 3.07109H22.5693L21.4166 7.02362L20.4283 3.07109H18.9317L20.56 8.96859H22.1408L23.3084 4.9237L24.4761 8.96859H26.0564L27.6898 3.07109H26.1892ZM18.8039 7.30123C18.8039 6.17074 18.2043 5.79187 16.8922 5.36396C16.274 5.16224 15.6968 5.00742 15.6968 4.52689C15.6968 4.10497 16.1256 3.96504 16.446 3.96504C16.7179 3.96504 17.2284 4.02271 17.2698 4.64822H18.7177C18.6925 3.45408 17.7213 2.93408 16.4716 2.93408C15.6968 2.93408 15.0568 3.15348 14.6535 3.55042C14.372 3.8279 14.2006 4.2344 14.2006 4.65739C14.2006 5.75519 14.9342 6.19532 15.7628 6.44741C16.694 6.7318 17.3099 6.90123 17.3099 7.41392C17.3099 7.75637 17.0388 8.0975 16.5029 8.0975C15.8219 8.0975 15.5746 7.69099 15.5583 7.29179H14.0932C14.0932 8.65085 15.2387 9.14759 16.5029 9.14759C18.1173 9.14759 18.8039 8.22866 18.8039 7.30123ZM35.2316 7.30123C35.2316 6.00037 34.2851 5.65699 33.1414 5.31546C32.5901 5.1528 32.0949 5.00756 32.0949 4.52689C32.0949 4.10497 32.5238 3.96504 32.8444 3.96504C33.117 3.96504 33.6257 4.02271 33.6666 4.64822H35.1159C35.0909 3.45408 34.1208 2.93408 32.8685 2.93408C32.0951 2.93408 31.4524 3.15348 31.0512 3.55042C30.7715 3.8279 30.5989 4.2344 30.5989 4.65739C30.5989 5.75519 31.3307 6.19532 32.1623 6.44741C33.0925 6.7318 33.7094 6.90123 33.7094 7.41392C33.7094 7.75637 33.4387 8.0975 32.9032 8.0975C32.2196 8.0975 31.9721 7.69099 31.9571 7.29179H30.4915C30.4915 8.65085 31.6361 9.14759 32.9029 9.14759C34.5148 9.14759 35.2316 8.22866 35.2316 7.30123ZM40.5004 7.30123C40.5004 6.00037 39.5499 5.65699 38.407 5.31546C37.8542 5.1528 37.3624 5.00756 37.3624 4.52689C37.3624 4.10497 37.7888 3.96504 38.1095 3.96504C38.3802 3.96504 38.8911 4.02271 38.9329 4.64822H40.3851C40.3597 3.45408 39.385 2.93408 38.1363 2.93408C37.3624 2.93408 36.72 3.15348 36.3159 3.55042C36.0364 3.8279 35.8647 4.2344 35.8647 4.65739C35.8647 5.75519 36.597 6.19532 37.4263 6.44741C38.3575 6.7318 38.9739 6.90123 38.9739 7.41392C38.9739 7.75637 38.7032 8.0975 38.1677 8.0975C37.4854 8.0975 37.2384 7.69099 37.2221 7.29179H35.7559C35.7559 8.65085 36.8999 9.14759 38.1677 9.14759C39.7838 9.14759 40.5004 8.22866 40.5004 7.30123Z" fill="#CC0000"/>
<path d="M8.12419 1.42188H13.0885L10.8177 10.6379H0.732353L8.12419 1.42188Z" fill="#CC0000"/>
<path d="M9.27462 6.87994H11.2588V5.17975H9.27462V3.19531H7.5735V5.17975H5.58933V6.87994H7.57257V8.86477H9.27316V6.87994H9.27462Z" fill="white"/>
</svg>
