<svg width="44" height="15" viewBox="0 0 44 15" fill="none" xmlns="http://www.w3.org/2000/svg">
<path d="M22.3321 0.200423C22.6365 0.109615 22.9913 0.167912 23.2307 0.383721C23.4336 0.572624 23.5199 0.855137 23.521 1.127C23.5221 3.79911 23.5216 6.47122 23.5216 9.14332C23.507 9.54355 23.5917 9.99254 23.3439 10.3406C23.0973 10.6999 22.5793 10.7947 22.1993 10.6052C21.8893 10.4511 21.7234 10.0957 21.7273 9.75992C21.7284 6.99588 21.7273 4.23129 21.7278 1.46725C21.7312 1.22061 21.7021 0.964443 21.7895 0.728455C21.8764 0.481816 22.0799 0.275536 22.3321 0.200423Z" fill="#504F4E"/>
<path d="M15.2127 5.2402C15.6679 4.59109 16.4263 4.19086 17.2088 4.11519C18.0401 4.02326 18.9572 4.16452 19.6012 4.73571C20.1993 5.2615 20.4661 6.067 20.5205 6.84223C20.5373 7.14717 20.5822 7.48181 20.423 7.75872C20.2991 7.97733 20.0261 8.03507 19.794 8.03675C18.6393 8.03899 17.484 8.03507 16.3293 8.03843C16.4028 8.46781 16.604 8.92801 17.0306 9.10851C17.6259 9.36187 18.2974 9.21277 18.8927 9.03451C19.1287 8.96445 19.3725 8.87756 19.6225 8.91232C19.9712 8.98743 20.2189 9.36131 20.1791 9.71109C20.1455 9.97735 19.9258 10.1691 19.7066 10.2957C19.3041 10.5188 18.8439 10.608 18.3916 10.6612C17.5351 10.761 16.6074 10.6943 15.8725 10.2021C15.1443 9.73127 14.7273 8.89326 14.6247 8.04908C14.5064 7.08719 14.6399 6.04514 15.2127 5.2402ZM16.9101 5.63987C16.4796 5.86633 16.3731 6.39043 16.3299 6.83214C17.1718 6.8327 18.0143 6.83102 18.8563 6.8327C18.8243 6.38203 18.6741 5.87249 18.2453 5.64659C17.8349 5.4448 17.3232 5.44704 16.9101 5.63987Z" fill="#504F4E"/>
<path d="M8.25846 4.16285C8.56732 4.07596 8.93279 4.12809 9.1643 4.36296C9.36049 4.55579 9.43897 4.83662 9.43784 5.10512C9.43953 6.09728 9.43728 7.08888 9.4384 8.08048C9.43616 8.43811 9.58246 8.81927 9.89469 9.01659C10.1694 9.19484 10.5118 9.21109 10.8286 9.1741C11.1004 9.1399 11.3717 9.01266 11.5298 8.78172C11.708 8.52947 11.7333 8.20996 11.7366 7.91063C11.7372 6.93865 11.7361 5.96667 11.7366 4.99525C11.7394 4.65668 11.9435 4.317 12.2647 4.19256C12.6139 4.05186 13.0646 4.11856 13.309 4.42182C13.4995 4.64099 13.5365 4.94312 13.5315 5.22339C13.5253 6.11802 13.5382 7.01321 13.5253 7.90839C13.5068 8.67409 13.2994 9.49305 12.7165 10.0278C12.0915 10.604 11.1951 10.7436 10.3751 10.7117C9.61946 10.6859 8.8162 10.4589 8.30162 9.87366C7.82965 9.34002 7.65252 8.60795 7.64467 7.91063C7.64579 6.93865 7.64299 5.96667 7.64579 4.99525C7.65027 4.62698 7.89915 4.26599 8.25846 4.16285Z" fill="#504F4E"/>
<path d="M30.2863 4.17209C31.1283 4.06614 32.0459 4.10482 32.788 4.56054C33.2987 4.8666 33.6462 5.39519 33.7964 5.96526C33.8996 6.34251 33.9338 6.73601 33.9343 7.12615C33.9332 7.9849 33.9338 8.84365 33.9343 9.7024C33.9394 9.9866 33.8469 10.2859 33.6294 10.4788C33.3082 10.7658 32.783 10.7725 32.4495 10.5034C32.2308 10.3257 32.1165 10.0393 32.1249 9.76014C32.1277 8.90026 32.1249 8.04039 32.1266 7.18052C32.1283 6.80159 32.1423 6.38567 31.9119 6.06168C31.7236 5.78309 31.3822 5.65528 31.0565 5.64351C30.7348 5.63398 30.3833 5.69564 30.1423 5.92603C29.918 6.14968 29.8401 6.47816 29.8413 6.78646C29.8429 7.76068 29.8407 8.7349 29.8429 9.70857C29.8435 9.94063 29.793 10.1811 29.6479 10.3678C29.3396 10.7798 28.6546 10.814 28.3014 10.4423C28.1249 10.2641 28.0464 10.0085 28.0481 9.76182C28.0475 9.10767 28.0486 8.45407 28.0481 7.79992C28.0542 7.20238 28.0077 6.59363 28.1692 6.01011C28.3037 5.45461 28.6254 4.93891 29.0997 4.61211C29.4528 4.3722 29.8665 4.23487 30.2863 4.17209Z" fill="#504F4E"/>
<path d="M36.0981 4.87838C36.7102 4.34026 37.5438 4.10652 38.3481 4.12614C39.1363 4.12726 39.9401 4.28869 40.6307 4.67939C40.9485 4.85204 41.1867 5.18668 41.1789 5.55776C41.1789 7.40811 41.1783 9.25903 41.1794 11.1099C41.1677 11.9474 40.8992 12.8358 40.2445 13.3958C39.5869 13.962 38.6862 14.1279 37.842 14.1167C37.1929 14.0892 36.5387 13.9255 35.9799 13.5875C35.7781 13.4581 35.5875 13.2966 35.4703 13.0847C35.2562 12.6895 35.5051 12.1256 35.9457 12.0264C36.2697 11.976 36.5735 12.1346 36.8649 12.2529C37.2607 12.4272 37.6923 12.5259 38.1262 12.5102C38.4961 12.5096 38.893 12.4171 39.1615 12.1469C39.4109 11.8874 39.4872 11.513 39.4844 11.1643C39.4832 10.8414 39.4816 10.5191 39.4838 10.1963C38.9771 10.6419 38.2657 10.7489 37.6133 10.7069C36.93 10.6649 36.2596 10.3599 35.8122 9.83526C35.1828 9.11385 34.9967 8.10991 35.0477 7.17829C35.0914 6.31786 35.4333 5.44621 36.0981 4.87838ZM37.986 5.65866C37.7119 5.70575 37.4451 5.82682 37.2517 6.02974C36.898 6.41315 36.8179 6.9608 36.8184 7.46249C36.8257 7.91372 36.861 8.4042 37.1407 8.77864C37.4059 9.12338 37.8767 9.20185 38.2859 9.1699C38.6772 9.15084 39.0634 8.93784 39.2433 8.58133C39.5797 7.94343 39.4603 7.20015 39.4838 6.50844C39.4715 6.30272 39.5455 6.03703 39.3397 5.90362C38.9563 5.6211 38.4418 5.59083 37.986 5.65866Z" fill="#504F4E"/>
<path d="M1.04019 4.63835C1.23022 4.27007 1.69883 4.12657 2.08616 4.20561C2.3939 4.26279 2.61307 4.53577 2.68987 4.82669C3.04413 6.02233 3.39952 7.21741 3.75154 8.41417C3.77059 8.48423 3.80367 8.55038 3.84178 8.61204C4.21286 7.38725 4.57273 6.1591 4.93596 4.93151C5.00435 4.66862 5.13103 4.39227 5.38888 4.26895C5.80312 4.08005 6.37319 4.21402 6.60806 4.61873C6.75773 4.88723 6.71961 5.21571 6.61142 5.4915C6.1075 6.89453 5.6131 8.30094 5.11085 9.70454C5.00547 9.97472 4.90457 10.2623 4.69437 10.4719C4.47688 10.6788 4.15849 10.6995 3.87373 10.7017C3.55759 10.7034 3.20557 10.6743 2.96285 10.4467C2.74032 10.2331 2.62372 9.93772 2.51834 9.65465C2.02002 8.24656 1.52562 6.83736 1.02506 5.43096C0.932006 5.17759 0.909585 4.88275 1.04019 4.63835Z" fill="#504F4E"/>
<path d="M25.4786 4.2486C25.8558 4.09894 26.3351 4.21273 26.5649 4.55802C26.7017 4.74917 26.7331 4.99188 26.732 5.22114C26.7297 6.71611 26.7309 8.21164 26.7314 9.7066C26.7309 9.95661 26.6686 10.2178 26.4982 10.4078C26.1754 10.789 25.515 10.7997 25.1787 10.4314C25.0173 10.2503 24.9349 10.0065 24.9366 9.76546C24.9371 8.21332 24.9377 6.66062 24.9366 5.10847C24.927 4.74973 25.135 4.37809 25.4786 4.2486Z" fill="#504F4E"/>
<path d="M42.4094 0.834704C42.693 0.745017 43.0058 0.745017 43.2895 0.835825C43.642 0.949054 43.9212 1.26464 43.9828 1.63067C44.0215 1.94514 44.0075 2.29268 43.8147 2.55893C43.4391 3.08472 42.6235 3.15647 42.1112 2.79828C41.4526 2.30781 41.5876 1.07574 42.4094 0.834704Z" fill="#FFCC00"/>
</svg>
